<svg width="174" height="162" viewBox="0 0 174 162" fill="none" xmlns="http://www.w3.org/2000/svg">
<g id="Group 51">
<path id="Rectangle 158" d="M49.8052 75.9999C49.8052 85.9411 57.864 93.9999 67.8052 93.9999L94.8052 93.9999C97.5666 93.9999 99.8052 91.7614 99.8052 88.9999L99.8052 54.9999C99.8052 49.4771 95.328 44.9999 89.8052 44.9999L54.8052 44.9999C52.0437 44.9999 49.8052 47.2385 49.8052 49.9999L49.8052 75.9999Z" fill="#FFF1DA"/>
<g id="plane">
<g id="Group">
<path id="Vector" d="M99.0103 89.978C97.6236 89.9828 96.2371 90.2937 94.9368 90.8908C91.556 92.389 89.3613 95.1998 90.0352 97.1684C90.7091 99.1369 93.9963 99.5172 97.3771 98.019C98.6897 97.4579 99.8956 96.6202 100.921 95.5579C101.399 95.0404 101.563 94.2851 101.338 93.6318L100.463 91.0745C100.24 90.4199 99.6704 89.99 99.0103 89.978Z" fill="#D5D6DB"/>
<path id="Vector_2" d="M90.9517 62.9754C89.9463 62.979 88.9409 63.2045 87.9981 63.6375C85.5475 64.7235 83.9556 66.7617 84.4439 68.1883C84.9322 69.6148 87.3165 69.8909 89.7668 68.805C90.7185 68.3978 91.5928 67.79 92.336 67.0196C92.6825 66.6444 92.8009 66.097 92.6382 65.6232L92.0042 63.7711C91.8433 63.2965 91.4303 62.9843 90.9517 62.9754Z" fill="#D5D6DB"/>
<path id="Vector_3" d="M78.1899 61.3795C77.9752 61.2972 77.7349 61.3054 77.5162 61.402L71.7477 63.9415C71.2653 64.1529 71.015 64.7297 71.1889 65.2301C71.2287 65.3448 71.2892 65.4493 71.3671 65.5377L83.2738 79.1268L102.509 70.6591L78.1899 61.3795Z" fill="#029BC5"/>
<path id="Vector_4" d="M133.833 70.5497L83.6705 96.7377L55.3355 102.502L41.4737 101.176L40.566 96.5568L123.982 54.3378C126.469 53.0703 129.089 52.7522 131.576 53.4162C132.664 53.7162 133.711 54.217 134.691 54.9062C135.561 55.5058 136.358 56.2907 137.055 57.2377C137.832 58.3049 139.484 59.0854 139.831 60.706C139.833 60.7045 140.221 67.639 133.833 70.5497V70.5497Z" fill="#E1E6E9"/>
<path id="Vector_5" d="M87.6942 85.7471L62.2458 122.195C61.9193 122.717 61.9806 123.441 62.3823 123.812C62.6288 124.039 62.9599 124.089 63.2619 123.944L68.8959 121.25C69.9796 120.731 70.9804 119.95 71.8365 118.954L118.387 70.1404L87.6942 85.7471Z" fill="#029BC5"/>
<path id="Vector_6" d="M33.731 86.2944C33.3904 86.0855 32.9603 86.0585 32.5767 86.2216L27.759 88.2697C27.1026 88.5484 26.7707 89.2919 27.0174 89.9305C27.0645 90.052 27.1306 90.1643 27.2139 90.2634L38.5665 103.801L52.7389 97.9409L33.731 86.2944Z" fill="#029BC5"/>
<path id="Vector_7" d="M44.3307 103.82L36.4619 113.906C36.347 114.051 36.34 114.279 36.4463 114.415C36.523 114.514 36.6415 114.541 36.7481 114.485L41.0859 112.382C41.1196 112.365 41.1513 112.341 41.1789 112.311L52.3708 99.9278L44.3307 103.82Z" fill="#029BC5"/>
<path id="Vector_8" d="M132.098 53.1809C130.994 52.6529 129.827 52.2854 128.624 52.0865C127.232 53.7197 126.23 55.7076 125.715 57.8517C125.643 58.291 125.902 58.6921 126.293 58.7475C126.414 58.7645 126.539 58.7464 126.656 58.6945L134.796 55.0119C133.987 54.2559 133.079 53.6394 132.098 53.1809Z" fill="#029BC5"/>
<path id="Vector_9" d="M115.332 60.8297L120.875 58.628L124.927 67.433L119.383 69.6347L115.332 60.8297Z" fill="#D5D6DB"/>
<g id="Group_2">
<path id="Vector_10" d="M112.319 64.6508C111.658 64.9037 111.334 65.6046 111.595 66.2163L112.017 67.2072C112.3 67.8098 113.058 68.0765 113.71 67.8029C114.33 67.5423 114.636 66.8819 114.409 66.2914L113.986 65.3005C113.726 64.6894 112.98 64.3984 112.319 64.6508V64.6508Z" fill="#3A556A"/>
<path id="Vector_11" d="M107.855 67.4232C107.194 67.6762 106.869 68.3771 107.13 68.9888L107.553 69.9797C107.836 70.5823 108.593 70.849 109.245 70.5754C109.865 70.3148 110.171 69.6543 109.944 69.0639L109.522 68.073C109.261 67.462 108.515 67.171 107.855 67.4232V67.4232Z" fill="#3A556A"/>
<path id="Vector_12" d="M103.389 70.1964C102.729 70.45 102.405 71.1502 102.666 71.7613L103.088 72.7522C103.371 73.3548 104.129 73.6215 104.78 73.3479C105.401 73.0873 105.707 72.4269 105.48 71.8365L105.057 70.8456C104.796 70.2339 104.049 69.9433 103.389 70.1964V70.1964Z" fill="#3A556A"/>
<path id="Vector_13" d="M98.9243 72.9687C98.2644 73.2223 97.9408 73.9226 98.2014 74.5337L98.624 75.5246C98.9069 76.1272 99.6644 76.394 100.316 76.1203C100.937 75.8597 101.242 75.1993 101.016 74.6088L100.593 73.6179C100.332 73.0064 99.5849 72.7157 98.9243 72.9687V72.9687Z" fill="#3A556A"/>
<path id="Vector_14" d="M94.4609 75.7412C93.8003 75.9948 93.4767 76.6944 93.7378 77.3048L94.1611 78.2947C94.4221 78.9048 95.1693 79.1947 95.8299 78.942C96.4906 78.6893 96.8145 77.9898 96.5536 77.3797L96.1302 76.3898C95.87 75.7793 95.1232 75.4888 94.4622 75.7407C94.4617 75.7409 94.4614 75.741 94.4609 75.7412Z" fill="#3A556A"/>
<path id="Vector_15" d="M89.9965 78.5137C89.3359 78.7672 89.0123 79.4669 89.2734 80.0773L89.6968 81.0671C89.9578 81.6773 90.7049 81.9671 91.3656 81.7144C92.0262 81.4618 92.3502 80.7623 92.0892 80.1521L91.6658 79.1623C91.4057 78.5518 90.6589 78.2613 89.9979 78.5132C89.9973 78.5134 89.9968 78.5136 89.9965 78.5137Z" fill="#3A556A"/>
<path id="Vector_16" d="M85.5319 81.2863C84.8713 81.5398 84.5477 82.2395 84.8088 82.8499L85.2321 83.8397C85.494 84.4496 86.2416 84.7384 86.9016 84.485C87.5605 84.2321 87.8838 83.5341 87.6242 82.9249L87.2008 81.935C86.94 81.3245 86.193 81.034 85.5319 81.2863Z" fill="#3A556A"/>
<path id="Vector_17" d="M81.0673 84.0587C80.4067 84.3123 80.0831 85.012 80.3442 85.6224L80.7675 86.6123C81.0294 87.2222 81.777 87.5109 82.437 87.2576C83.0959 87.0047 83.4192 86.3066 83.1596 85.6974L82.7362 84.7075C82.4754 84.0969 81.7284 83.8065 81.0673 84.0587Z" fill="#3A556A"/>
<path id="Vector_18" d="M76.603 86.8312C75.9424 87.0847 75.6189 87.7844 75.88 88.3948L76.3033 89.3846C76.5651 89.9945 77.3127 90.2833 77.9727 90.0299C78.6316 89.777 78.9549 89.079 78.6954 88.4698L78.272 87.4799C78.0109 86.8695 77.2639 86.579 76.603 86.8312Z" fill="#3A556A"/>
<path id="Vector_19" d="M72.1372 89.6044C71.4766 89.8571 71.1526 90.5566 71.4136 91.1668L71.4141 91.1681L71.8375 92.158C72.0993 92.7679 72.8469 93.0566 73.5069 92.8033C74.1658 92.5503 74.4891 91.8523 74.2295 91.243L73.8062 90.2532C73.5454 89.6426 72.7983 89.3522 72.1372 89.6044Z" fill="#3A556A"/>
<path id="Vector_20" d="M67.674 92.3761C67.0133 92.6287 66.6894 93.3282 66.9503 93.9384L66.9509 93.9397L67.3742 94.9295C67.6361 95.5394 68.3837 95.8282 69.0437 95.5748C69.7026 95.3219 70.0259 94.6239 69.7663 94.0147L69.343 93.0248C69.0819 92.4144 68.3348 92.1239 67.674 92.3761Z" fill="#3A556A"/>
</g>
</g>
</g>
</g>
</svg>
